<svg width="78" height="78" viewBox="0 0 78 78" fill="none" xmlns="http://www.w3.org/2000/svg">
<path opacity="0.2" d="M0 5C0 2.23858 2.23858 0 5 0H41C43.7614 0 46 2.23858 46 5V29C46 31.7614 43.7614 34 41 34H20L5.25 41L5.5 34H5C2.23858 34 0 31.7614 0 29V5Z" fill="white"/>
<path d="M20 33.5H19.8874L19.7856 33.5483L5.77905 40.1955L5.99968 34.0178L6.01818 33.5H5.5H5C2.51472 33.5 0.5 31.4853 0.5 29V5C0.5 2.51472 2.51472 0.5 5 0.5H41C43.4853 0.5 45.5 2.51472 45.5 5V29C45.5 31.4853 43.4853 33.5 41 33.5H20Z" stroke="white"/>
<line opacity="0.7" x1="8" y1="7" x2="33" y2="7" stroke="white" stroke-width="2" stroke-linecap="round" stroke-linejoin="round" stroke-dasharray="1 5"/>
<path opacity="0.7" d="M8 17H25" stroke="white" stroke-width="2" stroke-linecap="round" stroke-linejoin="round" stroke-dasharray="1 5"/>
<line opacity="0.7" x1="7" y1="12.5" x2="34" y2="12.5" stroke="white" stroke-linejoin="round" stroke-dasharray="1 5"/>
<path opacity="0.2" d="M78 13C78 10.2386 75.7614 8 73 8H60H45V32H58L72.75 39L72.5 32H73C75.7614 32 78 29.7614 78 27V13Z" fill="white"/>
<path d="M58.2144 31.5483L72.2209 38.1955L72.0003 32.0178L71.9818 31.5H72.5H73C75.4853 31.5 77.5 29.4853 77.5 27V13C77.5 10.5147 75.4853 8.5 73 8.5H45.5V31.5H58H58.1126L58.2144 31.5483Z" stroke="white"/>
<path opacity="0.7" d="M70 15H50" stroke="white" stroke-width="2" stroke-linecap="round" stroke-linejoin="round" stroke-dasharray="1 5"/>
<path opacity="0.7" d="M70 25H57" stroke="white" stroke-width="2" stroke-linecap="round" stroke-linejoin="round" stroke-dasharray="1 5"/>
<path opacity="0.7" d="M71 20.5H55" stroke="white" stroke-linejoin="round" stroke-dasharray="1 5"/>
<path d="M9 77.5V72.75C9 69.8505 11.3991 67.5 14.2986 67.5V67.5C17.1449 67.5 19.5 65.1926 19.5 62.3463V62.3463C14.5582 60.6783 11 56.0047 11 50.5C11 43.5964 16.5964 38 23.5 38C30.4036 38 36 43.5964 36 50.5C36 56.0047 32.4418 60.6783 27.5 62.3463V62.3463C27.5 65.1926 29.8551 67.5 32.7014 67.5V67.5C35.6009 67.5 38 69.8505 38 72.75V77.5" stroke="white"/>
<path d="M44 77.5V72.75C44 69.8505 46.3991 67.5 49.2986 67.5V67.5C52.1449 67.5 54.5 65.1926 54.5 62.3463V62.3463C49.5582 60.6783 46 56.0047 46 50.5C46 48.7222 46.3711 47.0312 47.0401 45.5M73 77.5V72.75C73 69.8505 70.6009 67.5 67.7014 67.5V67.5C64.8551 67.5 62.5 65.1926 62.5 62.3463V62.3463C67.4418 60.6783 71 56.0047 71 50.5V49.5" stroke="white"/>
<path d="M11.5 50.5H16.5L21 48L25 50.5H35.5" stroke="white"/>
<path d="M56 49.5C49.8163 49.5 44.7725 44.6193 44.5107 38.5H58H60.5C66.299 38.5 71 43.201 71 49V49.5H56Z" fill="url(#paint0_linear)" stroke="white"/>
<path fill-rule="evenodd" clip-rule="evenodd" d="M36 50.5C36 43.5964 30.4036 38 23.5 38C16.5964 38 11 43.5964 11 50.5H16.5L21 48L25 50.5H36Z" fill="url(#paint1_linear)"/>
<defs>
<linearGradient id="paint0_linear" x1="19" y1="20" x2="63.5" y2="62.5" gradientUnits="userSpaceOnUse">
<stop stop-color="#FFFCFC"/>
<stop offset="1" stop-color="#FFFCFC" stop-opacity="0"/>
</linearGradient>
<linearGradient id="paint1_linear" x1="-11.7273" y1="19.25" x2="33.9169" y2="57.2946" gradientUnits="userSpaceOnUse">
<stop stop-color="#FFFCFC"/>
<stop offset="1" stop-color="#FFFCFC" stop-opacity="0"/>
</linearGradient>
</defs>
</svg>
