<svg width="89" height="88" viewBox="0 0 89 88" fill="none" xmlns="http://www.w3.org/2000/svg">
<circle cx="47.9194" cy="40.7675" r="28.327" transform="rotate(45 47.9194 40.7675)" fill="white" fill-opacity="0.2" stroke="white"/>
<circle cx="48.2562" cy="40.9647" r="22.2582" stroke="white"/>
<path d="M34.0898 29.3098C34.0898 28.4814 34.7614 27.8098 35.5898 27.8098H39.6816C40.5101 27.8098 41.1816 28.4814 41.1816 29.3098V48.0508H36.5898C35.2091 48.0508 34.0898 46.9315 34.0898 45.5508V29.3098Z" fill="url(#paint0_linear)" fill-opacity="0.3" stroke="white"/>
<path d="M45.2158 34.3672C45.2158 33.5387 45.8874 32.8672 46.7158 32.8672H50.8076C51.636 32.8672 52.3076 33.5387 52.3076 34.3672V48.0507H45.2158V34.3672Z" fill="url(#paint1_linear)" fill-opacity="0.3" stroke="white"/>
<path d="M56.3423 39.4245C56.3423 38.5961 57.0139 37.9245 57.8423 37.9245H61.9341C62.7625 37.9245 63.4341 38.5961 63.4341 39.4245V45.5507C63.4341 46.9315 62.3148 48.0507 60.9341 48.0507H56.3423V39.4245Z" fill="url(#paint2_linear)" fill-opacity="0.3" stroke="white"/>
<line x1="38.647" y1="48.0508" x2="57.865" y2="48.0508" stroke="white"/>
<path d="M36.1187 52.0909H38.1416" stroke="white" stroke-linecap="round"/>
<path d="M47.7505 52.0909H49.7734" stroke="white" stroke-linecap="round"/>
<path d="M58.8765 52.0909H60.8994" stroke="white" stroke-linecap="round"/>
<rect x="25.748" y="58.6679" width="5.06884" height="5.06884" transform="rotate(45 25.748 58.6679)" fill="white" fill-opacity="0.2" stroke="white"/>
<path d="M5.72168 78.694L9.30589 82.2782L7.51379 84.0703C6.52403 85.0601 4.91933 85.0601 3.92957 84.0703C2.93982 83.0806 2.93982 81.4759 3.92957 80.4861L5.72168 78.694Z" fill="white" fill-opacity="0.2" stroke="white"/>
<path d="M18.9734 62.5813C19.9498 61.605 21.5327 61.605 22.509 62.5813L25.4185 65.4909C26.3948 66.4672 26.3948 68.0501 25.4185 69.0264L25.0325 69.4124L18.5874 62.9673L18.9734 62.5813Z" fill="white" fill-opacity="0.2" stroke="white"/>
<path d="M18.5957 62.9592L25.0408 69.4043L12.496 81.949C11.5197 82.9253 9.93683 82.9253 8.96052 81.949L6.05095 79.0395C5.07464 78.0632 5.07464 76.4802 6.05095 75.5039L18.5957 62.9592Z" fill="white" fill-opacity="0.2" stroke="white"/>
<defs>
<linearGradient id="paint0_linear" x1="37.6357" y1="27.3098" x2="37.6357" y2="48.5508" gradientUnits="userSpaceOnUse">
<stop offset="0.469613" stop-color="white"/>
<stop offset="1" stop-color="white" stop-opacity="0"/>
</linearGradient>
<linearGradient id="paint1_linear" x1="48.7617" y1="32.3672" x2="48.7617" y2="48.5507" gradientUnits="userSpaceOnUse">
<stop offset="0.469613" stop-color="white"/>
<stop offset="1" stop-color="white" stop-opacity="0"/>
</linearGradient>
<linearGradient id="paint2_linear" x1="59.8882" y1="37.4245" x2="59.8882" y2="48.5507" gradientUnits="userSpaceOnUse">
<stop offset="0.469613" stop-color="white"/>
<stop offset="1" stop-color="white" stop-opacity="0"/>
</linearGradient>
</defs>
</svg>
