<svg width="375" height="45" viewBox="0 0 375 45" fill="none" xmlns="http://www.w3.org/2000/svg">
<path d="M1.8125 13.375C1.8125 10.1667 3.04167 7.54167 5.5 5.5C7.95833 3.41667 10.8125 2.375 14.0625 2.375C14.9792 2.375 15.8333 2.4375 16.625 2.5625C17.4583 2.64583 18.125 2.75 18.625 2.875C19.1667 3 19.9167 3.20833 20.875 3.5C21.875 3.75 22.75 3.95833 23.5 4.125C24 6.33333 24.25 9.3125 24.25 13.0625C24.25 13.3542 24.0417 13.5 23.625 13.5C22.625 13.5 22.0833 13.2917 22 12.875C21.7917 11.0417 20.8958 9.27083 19.3125 7.5625C17.7708 5.8125 15.875 4.9375 13.625 4.9375C11.125 4.9375 9.35417 5.5625 8.3125 6.8125C7.3125 8.0625 6.8125 9.60417 6.8125 11.4375C6.8125 12.2292 6.95833 13 7.25 13.75C7.54167 14.4583 7.83333 15.0625 8.125 15.5625C8.41667 16.0208 8.9375 16.5625 9.6875 17.1875C10.4792 17.8125 11.0417 18.25 11.375 18.5C11.75 18.75 12.4583 19.2083 13.5 19.875C14.5833 20.5417 15.2708 20.9583 15.5625 21.125C15.7708 21.25 16.5 21.7083 17.75 22.5C19 23.25 19.8542 23.7917 20.3125 24.125C20.7708 24.4167 21.4792 24.9792 22.4375 25.8125C23.4375 26.6042 24.1458 27.3125 24.5625 27.9375C25.0208 28.5625 25.4375 29.3542 25.8125 30.3125C26.2292 31.2292 26.4375 32.1875 26.4375 33.1875C26.4375 36.5208 25.125 39.2708 22.5 41.4375C19.9167 43.5625 16.875 44.625 13.375 44.625C12.375 44.625 11.3125 44.5417 10.1875 44.375C9.0625 44.25 8.125 44.125 7.375 44C6.625 43.8333 5.66667 43.625 4.5 43.375C3.375 43.0833 2.58333 42.8958 2.125 42.8125C1.08333 37.6875 0.5625 34.375 0.5625 32.875C0.5625 32.625 0.895833 32.5 1.5625 32.5C2.3125 32.5 2.83333 32.6875 3.125 33.0625C4.54167 39.0625 8 42.0625 13.5 42.0625C15.5833 42.0625 17.3542 41.4375 18.8125 40.1875C20.2708 38.9375 21 37.1667 21 34.875C21 34.0417 20.875 33.2708 20.625 32.5625C20.375 31.8542 20.1042 31.2708 19.8125 30.8125C19.5625 30.3542 19.0833 29.875 18.375 29.375C17.7083 28.8333 17.1875 28.4375 16.8125 28.1875C16.4375 27.9375 15.75 27.5417 14.75 27C13.75 26.4583 13.0625 26.0833 12.6875 25.875C11.4792 25.1667 10.625 24.6667 10.125 24.375C9.66667 24.0833 8.875 23.5833 7.75 22.875C6.66667 22.125 5.875 21.4792 5.375 20.9375C4.875 20.3542 4.29167 19.6667 3.625 18.875C2.95833 18.0417 2.47917 17.1667 2.1875 16.25C1.9375 15.3333 1.8125 14.375 1.8125 13.375ZM38.1875 3C40.0625 3 43.3125 2.91667 47.9375 2.75C52.5625 2.58333 56.0417 2.5 58.375 2.5C58.5417 3.70833 58.8542 5.3125 59.3125 7.3125C59.8125 9.27083 60.1042 10.5 60.1875 11C59.9792 11.2083 59.6042 11.3125 59.0625 11.3125C58.5208 11.3125 58.2292 11.1667 58.1875 10.875C57.5625 8.58333 56.6875 7.125 55.5625 6.5C54.4375 5.83333 52.8958 5.5 50.9375 5.5H46.75C43.1667 5.5 41.3333 5.77083 41.25 6.3125C41.0417 7.3125 40.9375 9.0625 40.9375 11.5625V21.5625C40.9375 21.8125 41.8333 21.9375 43.625 21.9375H46.9375C48.1042 21.9375 48.9375 21.9375 49.4375 21.9375C49.9792 21.9375 50.5417 21.8542 51.125 21.6875C51.7083 21.5208 52.0833 21.4167 52.25 21.375C52.4167 21.3333 52.625 21.0625 52.875 20.5625C53.1667 20.0625 53.3333 19.7083 53.375 19.5C53.4167 19.25 53.5625 18.6458 53.8125 17.6875C53.8542 17.3958 54.1667 17.25 54.75 17.25C55.25 17.25 55.6042 17.3542 55.8125 17.5625V29.375C55.6458 29.5417 55.3125 29.625 54.8125 29.625C54.2708 29.625 53.9375 29.4583 53.8125 29.125C53.5208 28 53.2708 27.1667 53.0625 26.625C52.8542 26.0417 52.6875 25.7083 52.5625 25.625C52.4792 25.5 52.3125 25.3542 52.0625 25.1875C51.5208 24.8542 49.3125 24.6875 45.4375 24.6875C42.4375 24.6875 40.9375 24.875 40.9375 25.25V34.9375C40.9375 37.6458 41.125 39.5417 41.5 40.625C41.625 41.0417 43.0417 41.25 45.75 41.25H48.75C52.625 41.25 55.25 40.8958 56.625 40.1875C57.25 39.8542 57.9375 39.125 58.6875 38C59.4792 36.8333 60.1042 35.4583 60.5625 33.875C60.6458 33.625 60.9375 33.5 61.4375 33.5C62.2292 33.5 62.75 33.625 63 33.875C62.7917 34.4167 62.4583 35.2917 62 36.5C61.5833 37.6667 61.25 38.625 61 39.375C60.75 40.0833 60.4792 40.9167 60.1875 41.875C59.8958 42.8333 59.7083 43.625 59.625 44.25C57.5 44.25 54.1458 44.2083 49.5625 44.125C44.9792 44.0417 41.2292 44 38.3125 44L30.75 44.1875C30.625 44.0625 30.5625 43.7292 30.5625 43.1875C30.5625 42.6458 30.625 42.375 30.75 42.375C31.2917 42.375 32.0833 42.2292 33.125 41.9375C34.2083 41.6458 34.8542 41.3125 35.0625 40.9375C35.3542 40.4375 35.5 38.4792 35.5 35.0625V11.4375C35.5 8.97917 35.3542 7.1875 35.0625 6.0625C34.9375 5.72917 34.3125 5.41667 33.1875 5.125C32.1042 4.83333 31.2917 4.6875 30.75 4.6875C30.5833 4.6875 30.5 4.4375 30.5 3.9375C30.5 3.39583 30.5833 3.04167 30.75 2.875C32.9167 2.95833 35.3958 3 38.1875 3ZM71.625 11.3125C71.625 8.72917 71.4792 6.875 71.1875 5.75C71.0625 5.41667 70.4583 5.125 69.375 4.875C68.3333 4.58333 67.5417 4.4375 67 4.4375C66.8333 4.4375 66.75 4.16667 66.75 3.625C66.75 3.125 66.8333 2.79167 67 2.625C71.7917 2.83333 74.2917 2.9375 74.5 2.9375C75.1667 2.9375 77.5833 2.83333 81.75 2.625C81.8333 2.875 81.875 3.1875 81.875 3.5625C81.875 4.14583 81.7917 4.4375 81.625 4.4375C81.2083 4.4375 80.4583 4.58333 79.375 4.875C78.2917 5.16667 77.7083 5.45833 77.625 5.75C77.25 7.20833 77.0625 9.14583 77.0625 11.5625V35.3125C77.0625 37.7292 77.25 39.6667 77.625 41.125C77.7083 41.4167 78.2917 41.7083 79.375 42C80.4583 42.25 81.2083 42.375 81.625 42.375C81.7917 42.375 81.875 42.6875 81.875 43.3125C81.875 43.6458 81.8333 43.9375 81.75 44.1875C77.5833 43.9792 75.1667 43.875 74.5 43.875C74.2917 43.875 71.7917 43.9792 67 44.1875C66.8333 44.0208 66.75 43.7083 66.75 43.25C66.75 42.6667 66.8333 42.375 67 42.375C67.5417 42.375 68.3333 42.25 69.375 42C70.4583 41.75 71.0625 41.4583 71.1875 41.125C71.4792 40 71.625 38.1458 71.625 35.5625V11.3125ZM87.875 30.875C87.875 28.75 88.125 27.6875 88.625 27.6875H88.6875L103.75 26.9375H103.812C104.062 26.9375 104.188 27.125 104.188 27.5C104.188 28.4167 104.104 29.1667 103.938 29.75C103.812 30.2917 103.688 30.625 103.562 30.75L103.375 30.875L88.3125 31.5625C88.2708 31.5625 88.2292 31.5625 88.1875 31.5625C88.1458 31.5625 88.0833 31.5 88 31.375C87.9167 31.25 87.875 31.0833 87.875 30.875ZM139.375 35.5625V24.5625C139.375 24.5625 139.333 24.4792 139.25 24.3125C135.333 24.2292 132.25 24.1875 130 24.1875C123.583 24.1875 120.375 24.2917 120.375 24.5V35.3125C120.375 37.7292 120.562 39.6667 120.938 41.125C121.021 41.4167 121.604 41.7083 122.688 42C123.771 42.25 124.521 42.375 124.938 42.375C125.062 42.375 125.125 42.625 125.125 43.125C125.167 43.625 125.146 43.9792 125.062 44.1875C120.896 43.9792 118.479 43.875 117.812 43.875C117.604 43.875 115.104 43.9792 110.312 44.1875C110.146 44.0208 110.062 43.7083 110.062 43.25C110.062 42.6667 110.146 42.375 110.312 42.375C110.854 42.375 111.646 42.25 112.688 42C113.771 41.75 114.375 41.4583 114.5 41.125C114.792 40 114.938 38.1458 114.938 35.5625V11.3125C114.938 8.72917 114.792 6.875 114.5 5.75C114.375 5.41667 113.771 5.125 112.688 4.875C111.646 4.58333 110.854 4.4375 110.312 4.4375C110.146 4.4375 110.062 4.16667 110.062 3.625C110.062 3.125 110.146 2.79167 110.312 2.625C110.854 2.66667 111.958 2.75 113.625 2.875C115.292 2.95833 116.688 3 117.812 3C118.646 3 119.458 2.97917 120.25 2.9375C121.042 2.89583 121.896 2.85417 122.812 2.8125C123.729 2.72917 124.479 2.66667 125.062 2.625C125.146 2.79167 125.167 3.14583 125.125 3.6875C125.125 4.1875 125.062 4.4375 124.938 4.4375C124.521 4.4375 123.771 4.58333 122.688 4.875C121.604 5.16667 121.021 5.45833 120.938 5.75C120.562 7.20833 120.375 9.14583 120.375 11.5625V20.875L120.5 21.0625C124.583 21.1458 127.75 21.1875 130 21.1875C132.417 21.1875 135.5 21.1458 139.25 21.0625C139.333 20.9792 139.375 20.8958 139.375 20.8125V11.3125C139.375 8.72917 139.229 6.875 138.938 5.75C138.812 5.41667 138.208 5.125 137.125 4.875C136.083 4.58333 135.292 4.4375 134.75 4.4375C134.583 4.4375 134.5 4.1875 134.5 3.6875C134.5 3.14583 134.583 2.79167 134.75 2.625C135.25 2.66667 136.354 2.75 138.062 2.875C139.771 2.95833 141.188 3 142.312 3C143.104 3 143.896 2.97917 144.688 2.9375C145.479 2.89583 146.312 2.85417 147.188 2.8125C148.104 2.72917 148.854 2.66667 149.438 2.625C149.521 2.875 149.562 3.1875 149.562 3.5625C149.562 4.14583 149.479 4.4375 149.312 4.4375C148.896 4.4375 148.146 4.58333 147.062 4.875C145.979 5.16667 145.396 5.45833 145.312 5.75C144.979 7.04167 144.812 8.97917 144.812 11.5625V35.3125C144.812 37.8958 144.979 39.8333 145.312 41.125C145.396 41.4167 145.979 41.7083 147.062 42C148.146 42.25 148.896 42.375 149.312 42.375C149.479 42.375 149.562 42.6875 149.562 43.3125C149.562 43.6458 149.521 43.9375 149.438 44.1875C145.271 43.9792 142.896 43.875 142.312 43.875C142.062 43.875 139.542 43.9792 134.75 44.1875C134.583 44.0208 134.5 43.6875 134.5 43.1875C134.5 42.6458 134.583 42.375 134.75 42.375C135.292 42.375 136.083 42.25 137.125 42C138.208 41.75 138.812 41.4583 138.938 41.125C139.229 40 139.375 38.1458 139.375 35.5625ZM165.938 19.0625C163.771 19.0625 162.104 20 160.938 21.875C159.812 23.7083 159.25 25.2292 159.25 26.4375C159.25 26.7292 159.375 26.875 159.625 26.875H171.812C172.021 26.875 172.125 26.6667 172.125 26.25C172.125 24.9167 171.562 23.3958 170.438 21.6875C169.312 19.9375 167.812 19.0625 165.938 19.0625ZM166.562 16.75C168.479 16.75 170.167 17.125 171.625 17.875C173.083 18.5833 174.188 19.5208 174.938 20.6875C175.729 21.8125 176.292 22.9792 176.625 24.1875C177 25.3542 177.188 26.5208 177.188 27.6875C177.188 28.5208 177.062 29.0417 176.812 29.25C176.562 29.4167 176.083 29.5 175.375 29.5H159.625C159.292 29.5 159.125 29.6042 159.125 29.8125C159.125 32.4375 159.917 34.8542 161.5 37.0625C163.083 39.2708 165.375 40.375 168.375 40.375C169.25 40.375 170.083 40.2917 170.875 40.125C171.667 39.9583 172.333 39.7708 172.875 39.5625C173.458 39.3125 173.938 39.0833 174.312 38.875C174.729 38.625 175.083 38.3958 175.375 38.1875L175.812 37.875C176.062 37.875 176.188 38.1458 176.188 38.6875C176.188 39.0208 176.062 39.3958 175.812 39.8125C174.979 40.9792 173.75 42.0417 172.125 43C170.5 43.9167 168.729 44.375 166.812 44.375C163.354 44.375 160.375 43.0833 157.875 40.5C155.417 37.875 154.188 34.6875 154.188 30.9375C154.188 26.5625 155.354 23.1042 157.688 20.5625C160.062 18.0208 163.021 16.75 166.562 16.75ZM187.5 40C188.208 40.5833 189.125 40.875 190.25 40.875C191.375 40.875 192.458 40.5417 193.5 39.875C194.542 39.1667 195.062 38.4583 195.062 37.75V31.3125C194.729 31.4792 193.917 31.7708 192.625 32.1875C191.333 32.6042 190.312 32.9792 189.562 33.3125C188.854 33.6042 188.146 34.125 187.438 34.875C186.771 35.5833 186.438 36.4167 186.438 37.375C186.438 38.5 186.792 39.375 187.5 40ZM193.375 16.75C195.667 16.75 197.312 17.3125 198.312 18.4375C199.312 19.5208 199.812 21.2917 199.812 23.75V38.1875C199.812 39.0625 200.042 39.7917 200.5 40.375C200.958 40.9583 201.583 41.25 202.375 41.25C202.958 41.25 203.688 40.9583 204.562 40.375C204.729 40.375 204.812 40.5417 204.812 40.875C204.812 41.4167 204.708 41.8542 204.5 42.1875C202.792 43.6458 201.333 44.375 200.125 44.375C199.167 44.375 198.25 43.9792 197.375 43.1875C196.5 42.3958 195.896 41.5625 195.562 40.6875C195.521 40.6875 195.354 40.8333 195.062 41.125C194.812 41.375 194.458 41.6875 194 42.0625C193.542 42.3958 193 42.75 192.375 43.125C191.792 43.5 191.083 43.8125 190.25 44.0625C189.458 44.3125 188.646 44.4375 187.812 44.4375C185.896 44.4375 184.312 43.9375 183.062 42.9375C181.812 41.8958 181.188 40.3542 181.188 38.3125C181.188 37.3958 181.417 36.5417 181.875 35.75C182.333 34.9167 182.875 34.25 183.5 33.75C184.125 33.2083 184.979 32.6667 186.062 32.125C187.146 31.5833 188.062 31.1875 188.812 30.9375C189.604 30.6458 190.625 30.2917 191.875 29.875C193.125 29.4583 194 29.1458 194.5 28.9375C194.875 28.8125 195.062 28.5 195.062 28V23.3125C195.062 21.9792 194.646 20.9583 193.812 20.25C192.979 19.5 191.979 19.125 190.812 19.125C189.562 19.125 188.521 19.5625 187.688 20.4375C186.854 21.2708 186.438 22.375 186.438 23.75C186.438 25.2083 185.583 25.9375 183.875 25.9375C182.708 25.9375 181.896 25.5417 181.438 24.75C181.438 22.9583 182.75 21.1875 185.375 19.4375C188 17.6458 190.667 16.75 193.375 16.75ZM210.625 36.75V9.6875C210.625 8.27083 210.5 6.9375 210.25 5.6875C210.042 5.02083 208.979 4.6875 207.062 4.6875H206.5C206.25 4.6875 206.125 4.45833 206.125 4C206.125 3.33333 206.25 3 206.5 3C207.75 2.875 208.896 2.70833 209.938 2.5C211.021 2.29167 211.854 2.08333 212.438 1.875C213.062 1.66667 213.583 1.47917 214 1.3125C214.417 1.10417 214.729 0.9375 214.938 0.8125L215.188 0.625H215.312C215.479 0.625 215.646 0.75 215.812 1C215.979 1.20833 216.083 1.41667 216.125 1.625C215.667 2.95833 215.438 4.77083 215.438 7.0625V35.5625C215.438 37.9792 215.604 39.8333 215.938 41.125C216.021 41.4167 216.562 41.7083 217.562 42C218.562 42.25 219.271 42.375 219.688 42.375C219.812 42.375 219.896 42.625 219.938 43.125C219.979 43.625 219.958 43.9792 219.875 44.1875C215.708 43.9792 213.479 43.875 213.188 43.875C212.938 43.875 210.667 43.9792 206.375 44.1875C206.208 44.0208 206.125 43.6875 206.125 43.1875C206.125 42.6458 206.208 42.375 206.375 42.375C206.875 42.375 207.604 42.25 208.562 42C209.562 41.7083 210.104 41.4167 210.188 41.125C210.479 39.9167 210.625 38.4583 210.625 36.75ZM225.875 20.625H222.25C222.042 20.625 221.938 20.1875 221.938 19.3125C221.938 19.0625 221.958 18.9167 222 18.875C223.208 18.3333 224.521 17.2292 225.938 15.5625C226.396 15.0208 226.833 14.4167 227.25 13.75C227.708 13.0417 228.083 12.4375 228.375 11.9375C228.667 11.4375 228.812 11.1667 228.812 11.125C230.062 11.125 230.688 11.2292 230.688 11.4375V17.625C231.771 17.625 233.417 17.6458 235.625 17.6875C237.833 17.6875 239 17.6875 239.125 17.6875C239.458 17.6875 239.625 17.875 239.625 18.25C239.625 19 239.417 19.7917 239 20.625H230.688V35.9375C230.688 37.6042 231.104 38.9375 231.938 39.9375C232.812 40.9375 233.938 41.4375 235.312 41.4375C236.562 41.4375 237.854 41.0417 239.188 40.25C239.312 40.1667 239.5 40.3542 239.75 40.8125C240 41.2292 240.104 41.4583 240.062 41.5C239.438 42.1667 238.479 42.8333 237.188 43.5C235.896 44.125 234.562 44.4375 233.188 44.4375C231.104 44.4375 229.354 43.75 227.938 42.375C226.562 41 225.875 39.0417 225.875 36.5V20.625ZM260 16.625C262.792 16.625 264.792 17.625 266 19.625C267.208 21.625 267.812 24.7083 267.812 28.875V35.625C267.812 38 267.979 39.8333 268.312 41.125C268.396 41.4167 268.938 41.7083 269.938 42C270.938 42.25 271.646 42.375 272.062 42.375C272.188 42.375 272.271 42.625 272.312 43.125C272.354 43.625 272.333 43.9792 272.25 44.1875C268.083 43.9792 265.854 43.875 265.562 43.875C265.438 43.875 263.25 43.9792 259 44.1875C258.833 44.0208 258.75 43.6875 258.75 43.1875C258.75 42.6458 258.833 42.375 259 42.375C259.5 42.375 260.188 42.25 261.062 42C261.979 41.7083 262.479 41.4167 262.562 41.125C262.854 39.9167 263 38.4583 263 36.75V30.125C263 26.2917 262.458 23.7292 261.375 22.4375C260.333 21.1042 258.708 20.4375 256.5 20.4375C255.25 20.4375 254 20.9375 252.75 21.9375C251.542 22.8958 250.938 23.75 250.938 24.5V35.5625C250.938 37.9792 251.104 39.8333 251.438 41.125C251.521 41.4167 252.062 41.7083 253.062 42C254.062 42.25 254.771 42.375 255.188 42.375C255.312 42.375 255.396 42.625 255.438 43.125C255.479 43.625 255.458 43.9792 255.375 44.1875C251.208 43.9792 248.979 43.875 248.688 43.875C248.438 43.875 246.167 43.9792 241.875 44.1875C241.708 44.0208 241.625 43.6875 241.625 43.1875C241.625 42.6458 241.708 42.375 241.875 42.375C242.375 42.375 243.104 42.25 244.062 42C245.062 41.7083 245.604 41.4167 245.688 41.125C245.979 39.9167 246.125 38.4792 246.125 36.8125V9.6875C246.125 8.27083 246 6.9375 245.75 5.6875C245.542 5.02083 244.479 4.6875 242.562 4.6875H242C241.75 4.6875 241.625 4.45833 241.625 4C241.625 3.33333 241.75 3 242 3C243.25 2.875 244.396 2.70833 245.438 2.5C246.521 2.29167 247.354 2.08333 247.938 1.875C248.562 1.66667 249.083 1.47917 249.5 1.3125C249.917 1.10417 250.208 0.9375 250.375 0.8125L250.688 0.625H250.812C250.979 0.625 251.146 0.75 251.312 1C251.479 1.20833 251.583 1.41667 251.625 1.625C251.167 2.95833 250.938 4.77083 250.938 7.0625V20.75C250.938 20.9167 250.979 21 251.062 21C251.104 21 251.167 20.9583 251.25 20.875C252.167 19.875 253.458 18.9167 255.125 18C256.833 17.0833 258.458 16.625 260 16.625ZM288.062 16.75C292.646 16.75 295.812 17.8125 297.562 19.9375C297.562 22.7292 296.792 24.125 295.25 24.125C294.542 24.125 294 23.9792 293.625 23.6875C293.25 23.3542 292.771 22.7708 292.188 21.9375C290.896 20.0208 289.354 19.0625 287.562 19.0625C285.854 19.0625 284.292 19.875 282.875 21.5C281.5 23.125 280.812 25.5417 280.812 28.75C280.812 32.0833 281.625 34.8542 283.25 37.0625C284.917 39.2708 287.208 40.375 290.125 40.375C291 40.375 291.833 40.2917 292.625 40.125C293.417 39.9583 294.083 39.7708 294.625 39.5625C295.208 39.3125 295.688 39.0833 296.062 38.875C296.479 38.625 296.833 38.3958 297.125 38.1875L297.562 37.875C297.812 37.875 297.938 38.1458 297.938 38.6875C297.938 39.0208 297.812 39.3958 297.562 39.8125C296.729 40.9792 295.5 42.0417 293.875 43C292.25 43.9167 290.479 44.375 288.562 44.375C285.104 44.375 282.125 43.0833 279.625 40.5C277.167 37.875 275.938 34.6875 275.938 30.9375C275.938 27.1042 276.979 23.7917 279.062 21C281.146 18.1667 284.146 16.75 288.062 16.75ZM307.688 40C308.396 40.5833 309.312 40.875 310.438 40.875C311.562 40.875 312.646 40.5417 313.688 39.875C314.729 39.1667 315.25 38.4583 315.25 37.75V31.3125C314.917 31.4792 314.104 31.7708 312.812 32.1875C311.521 32.6042 310.5 32.9792 309.75 33.3125C309.042 33.6042 308.333 34.125 307.625 34.875C306.958 35.5833 306.625 36.4167 306.625 37.375C306.625 38.5 306.979 39.375 307.688 40ZM313.562 16.75C315.854 16.75 317.5 17.3125 318.5 18.4375C319.5 19.5208 320 21.2917 320 23.75V38.1875C320 39.0625 320.229 39.7917 320.688 40.375C321.146 40.9583 321.771 41.25 322.562 41.25C323.146 41.25 323.875 40.9583 324.75 40.375C324.917 40.375 325 40.5417 325 40.875C325 41.4167 324.896 41.8542 324.688 42.1875C322.979 43.6458 321.521 44.375 320.312 44.375C319.354 44.375 318.438 43.9792 317.562 43.1875C316.688 42.3958 316.083 41.5625 315.75 40.6875C315.708 40.6875 315.542 40.8333 315.25 41.125C315 41.375 314.646 41.6875 314.188 42.0625C313.729 42.3958 313.188 42.75 312.562 43.125C311.979 43.5 311.271 43.8125 310.438 44.0625C309.646 44.3125 308.833 44.4375 308 44.4375C306.083 44.4375 304.5 43.9375 303.25 42.9375C302 41.8958 301.375 40.3542 301.375 38.3125C301.375 37.3958 301.604 36.5417 302.062 35.75C302.521 34.9167 303.062 34.25 303.688 33.75C304.312 33.2083 305.167 32.6667 306.25 32.125C307.333 31.5833 308.25 31.1875 309 30.9375C309.792 30.6458 310.812 30.2917 312.062 29.875C313.312 29.4583 314.188 29.1458 314.688 28.9375C315.062 28.8125 315.25 28.5 315.25 28V23.3125C315.25 21.9792 314.833 20.9583 314 20.25C313.167 19.5 312.167 19.125 311 19.125C309.75 19.125 308.708 19.5625 307.875 20.4375C307.042 21.2708 306.625 22.375 306.625 23.75C306.625 25.2083 305.771 25.9375 304.062 25.9375C302.896 25.9375 302.083 25.5417 301.625 24.75C301.625 22.9583 302.938 21.1875 305.562 19.4375C308.188 17.6458 310.854 16.75 313.562 16.75ZM343.688 16.6875C346.146 16.6875 347.771 17.2917 348.562 18.5C348.562 19.9583 348.333 21.0208 347.875 21.6875C347.417 22.3542 346.854 22.6875 346.188 22.6875C345.438 22.6875 344.75 22.3333 344.125 21.625C343.5 20.9167 342.646 20.5625 341.562 20.5625C340.271 20.5625 339.146 21.1667 338.188 22.375C337.229 23.5833 336.75 24.8542 336.75 26.1875V35.5625C336.75 37.9792 336.917 39.8333 337.25 41.125C337.333 41.4167 337.875 41.7083 338.875 42C339.917 42.25 340.646 42.375 341.062 42.375C341.188 42.375 341.271 42.625 341.312 43.125C341.354 43.625 341.333 43.9792 341.25 44.1875C337.083 43.9792 334.833 43.875 334.5 43.875C334.25 43.875 331.979 43.9792 327.688 44.1875C327.521 44.0208 327.438 43.6875 327.438 43.1875C327.438 42.6458 327.521 42.375 327.688 42.375C328.188 42.375 328.917 42.25 329.875 42C330.875 41.7083 331.417 41.4167 331.5 41.125C331.792 39.9167 331.938 38.4583 331.938 36.75V24.9375C331.938 23.3125 331.646 22.1875 331.062 21.5625C330.646 21.0625 330.125 20.7292 329.5 20.5625C328.917 20.3542 328.417 20.25 328 20.25C327.625 20.25 327.438 20.2083 327.438 20.125C327.438 19.125 327.562 18.6042 327.812 18.5625C332.229 17.8958 335.104 17.3542 336.438 16.9375C336.479 16.9375 336.542 16.9375 336.625 16.9375C336.708 16.8958 336.75 16.875 336.75 16.875C336.917 16.875 337.021 17.0625 337.062 17.4375C337.104 17.7708 337.104 18.0208 337.062 18.1875L336.688 21.3125C337.438 20.1875 338.458 19.1458 339.75 18.1875C341.083 17.1875 342.396 16.6875 343.688 16.6875ZM363.188 19.0625C361.021 19.0625 359.354 20 358.188 21.875C357.062 23.7083 356.5 25.2292 356.5 26.4375C356.5 26.7292 356.625 26.875 356.875 26.875H369.062C369.271 26.875 369.375 26.6667 369.375 26.25C369.375 24.9167 368.812 23.3958 367.688 21.6875C366.562 19.9375 365.062 19.0625 363.188 19.0625ZM363.812 16.75C365.729 16.75 367.417 17.125 368.875 17.875C370.333 18.5833 371.438 19.5208 372.188 20.6875C372.979 21.8125 373.542 22.9792 373.875 24.1875C374.25 25.3542 374.438 26.5208 374.438 27.6875C374.438 28.5208 374.312 29.0417 374.062 29.25C373.812 29.4167 373.333 29.5 372.625 29.5H356.875C356.542 29.5 356.375 29.6042 356.375 29.8125C356.375 32.4375 357.167 34.8542 358.75 37.0625C360.333 39.2708 362.625 40.375 365.625 40.375C366.5 40.375 367.333 40.2917 368.125 40.125C368.917 39.9583 369.583 39.7708 370.125 39.5625C370.708 39.3125 371.188 39.0833 371.562 38.875C371.979 38.625 372.333 38.3958 372.625 38.1875L373.062 37.875C373.312 37.875 373.438 38.1458 373.438 38.6875C373.438 39.0208 373.312 39.3958 373.062 39.8125C372.229 40.9792 371 42.0417 369.375 43C367.75 43.9167 365.979 44.375 364.062 44.375C360.604 44.375 357.625 43.0833 355.125 40.5C352.667 37.875 351.438 34.6875 351.438 30.9375C351.438 26.5625 352.604 23.1042 354.938 20.5625C357.312 18.0208 360.271 16.75 363.812 16.75Z" fill="white"/>
</svg>
