<!-- Generator: Adobe Illustrator 21.0.2, SVG Export Plug-In  -->
<svg version="1.1"
	 xmlns="http://www.w3.org/2000/svg" xmlns:xlink="http://www.w3.org/1999/xlink" xmlns:a="http://ns.adobe.com/AdobeSVGViewerExtensions/3.0/"
	 x="0px" y="0px" width="37px" height="37px" viewBox="0 0 37 37" style="enable-background:new 0 0 37 37;" xml:space="preserve">
<style type="text/css">
	.st0{fill:#FFFFFF;fill-opacity:0.2;stroke:#FFFFFF;}
	.st1{fill:#FFFFFF;}
</style>
<defs>
</defs>
<g id="linked_inlogo_1_">
	<circle id="Ellipse_1_" class="st0" cx="18.5" cy="18.5" r="18"/>
	<g id="linkedin_1_">
		<g id="XMLID_801_1_">
			<path id="XMLID_802_1_" class="st1" d="M14.9,14.8h-3.3c-0.1,0-0.3,0.1-0.3,0.3v10.7c0,0.1,0.1,0.3,0.3,0.3h3.3
				c0.1,0,0.3-0.1,0.3-0.3V15C15.1,14.9,15,14.8,14.9,14.8z"/>
			<path id="XMLID_803_1_" class="st1" d="M13.2,9.4c-1.2,0-2.2,1-2.2,2.2c0,1.2,1,2.2,2.2,2.2c1.2,0,2.2-1,2.2-2.2
				C15.4,10.4,14.4,9.4,13.2,9.4z"/>
			<path id="XMLID_804_1_" class="st1" d="M23.3,14.5c-1.3,0-2.3,0.6-2.9,1.2V15c0-0.1-0.1-0.3-0.3-0.3H17c-0.1,0-0.3,0.1-0.3,0.3
				v10.7c0,0.1,0.1,0.3,0.3,0.3h3.3c0.1,0,0.3-0.1,0.3-0.3v-5.3c0-1.8,0.5-2.5,1.7-2.5c1.3,0,1.5,1.1,1.5,2.6v5.2
				c0,0.1,0.1,0.3,0.3,0.3h3.3c0.1,0,0.3-0.1,0.3-0.3v-5.9C27.6,17.2,27,14.5,23.3,14.5z"/>
		</g>
	</g>
</g>
</svg>