<!-- Generator: Adobe Illustrator 21.0.2, SVG Export Plug-In  -->
<svg version="1.1"
	 xmlns="http://www.w3.org/2000/svg" xmlns:xlink="http://www.w3.org/1999/xlink" xmlns:a="http://ns.adobe.com/AdobeSVGViewerExtensions/3.0/"
	 x="0px" y="0px" width="156.3px" height="25.3px" viewBox="0 0 156.3 25.3" style="enable-background:new 0 0 156.3 25.3;"
	 xml:space="preserve">
<style type="text/css">
	.st0{fill:#FFFFFF;}
</style>
<defs>
</defs>
<g>
	<g>
		<path class="st0" d="M22.6,22.9c-1.4,0.8-2.9,1.5-4.4,1.8c-1.6,0.4-3.3,0.6-5.1,0.6c-1.9,0-3.6-0.3-5.2-1c-1.6-0.7-3-1.6-4.1-2.8
			C2.5,20.3,1.6,19,1,17.4c-0.7-1.6-1-3.3-1-5.1c0-1.7,0.3-3.3,0.8-4.8c0.6-1.5,1.4-2.8,2.4-3.9c1-1.1,2.3-2,3.8-2.6
			C8.5,0.3,10.1,0,11.9,0c2.3,0,4.1,0.3,5.6,0.9c1.4,0.6,2.5,1.3,3.2,2c0.2,0.3,0.4,0.7,0.5,1.1c0.1,0.4,0.2,0.8,0.3,1.3
			c0.1,0.4,0.1,0.9,0.1,1.4c0,0.5,0,0.9,0,1.3h-1.1c-0.5-2.2-1.3-3.8-2.5-4.8c-1.2-1-2.9-1.5-5-1.5c-1.4,0-2.7,0.3-3.7,0.9
			c-1,0.6-1.8,1.4-2.5,2.4C6.2,5.9,5.8,7,5.5,8.3c-0.3,1.3-0.4,2.6-0.4,4c0,2.2,0.2,4,0.6,5.5c0.4,1.5,1,2.7,1.7,3.6
			c0.7,0.9,1.6,1.5,2.5,1.9s2,0.6,3.1,0.6c1.1,0,2-0.1,2.8-0.3c0.8-0.2,1.5-0.4,2.1-0.7v-6.4c0-0.5,0.1-1,0.2-1.5
			c0.2-0.5,0.5-1,1-1.4c0.5-0.4,1.2-0.8,2.1-1c0.9-0.3,2.1-0.4,3.7-0.4V13c-0.8,0-1.4,0.3-1.8,0.9c-0.4,0.6-0.5,1.4-0.5,2.5V22.9z"
			/>
	</g>
	<g>
		<path class="st0" d="M31.9,17.1h-1v7.5h-3.3V11.4c0-0.7-0.1-1.3-0.3-1.8c-0.2-0.5-0.7-0.7-1.4-0.7h-0.2V8.2h6.9c0.4,0,0.8,0,1.3,0
			c0.5,0,1,0.1,1.5,0.2c0.5,0.1,1,0.3,1.5,0.5c0.5,0.2,0.9,0.5,1.3,0.8c0.4,0.3,0.7,0.8,0.9,1.2c0.2,0.5,0.3,1.1,0.3,1.7
			c0,0.6-0.1,1.2-0.4,1.7c-0.2,0.5-0.6,0.9-0.9,1.2c-0.4,0.3-0.8,0.6-1.3,0.8c-0.5,0.2-1,0.4-1.4,0.5l2.6,4.3c0.3,0.5,0.6,1,0.9,1.3
			c0.3,0.3,0.6,0.6,0.8,0.8c0.3,0.2,0.5,0.3,0.7,0.4c0.2,0.1,0.4,0.2,0.6,0.2v0.6c-0.1,0.1-0.4,0.1-0.7,0.2c-0.3,0-0.7,0.1-1,0.1
			c-0.4,0-0.8-0.1-1.3-0.2c-0.4-0.1-0.8-0.3-1.2-0.6c-0.4-0.3-0.8-0.7-1.2-1.1c-0.4-0.5-0.8-1-1.2-1.7L31.9,17.1z M32.5,9.2
			c-0.2,0-0.4,0-0.6,0c-0.2,0-0.4,0-0.5,0.1c-0.2,0-0.3,0.1-0.5,0.1v6.7h1.5c0.4,0,0.8-0.1,1.2-0.2c0.4-0.1,0.8-0.3,1.1-0.6
			c0.3-0.3,0.6-0.6,0.8-1.1c0.2-0.4,0.3-1,0.3-1.6c0-0.6-0.1-1.2-0.3-1.6c-0.2-0.4-0.5-0.8-0.8-1.1c-0.3-0.3-0.7-0.5-1-0.6
			C33.2,9.2,32.8,9.2,32.5,9.2z"/>
	</g>
	<g>
		<path class="st0" d="M51.9,8.2c0.4,0,0.8,0.1,1.1,0.2c0.3,0.1,0.5,0.3,0.6,0.4c0.2,0.2,0.3,0.4,0.3,0.6c0.1,0.2,0.1,0.5,0.1,0.7
			v2.1h-0.7c0-1.1-0.3-1.8-0.8-2.3c-0.5-0.5-1.3-0.7-2.3-0.7h-4v6.2h6.5v1.1h-6.5v6.8h4.2c0.9,0,1.7-0.2,2.3-0.6
			c0.6-0.4,1.2-1.1,1.6-2.2l0.7,0.2l-0.7,2c-0.2,0.5-0.4,1-0.7,1.3c-0.3,0.3-0.8,0.5-1.5,0.5h-9.2V11.4c0-0.7-0.1-1.3-0.3-1.8
			c-0.2-0.5-0.7-0.7-1.4-0.7h-0.2V8.2H51.9z"/>
	</g>
	<g>
		<path class="st0" d="M66.8,8.2c0.4,0,0.8,0.1,1.1,0.2c0.3,0.1,0.5,0.3,0.6,0.4c0.2,0.2,0.3,0.4,0.3,0.6c0.1,0.2,0.1,0.5,0.1,0.7
			v2.1h-0.7c0-1.1-0.3-1.8-0.8-2.3C66.8,9.5,66,9.3,65,9.3h-4v6.2h6.5v1.1H61v6.8h4.2c0.9,0,1.7-0.2,2.3-0.6
			c0.6-0.4,1.2-1.1,1.6-2.2l0.7,0.2l-0.7,2c-0.2,0.5-0.4,1-0.7,1.3c-0.3,0.3-0.8,0.5-1.5,0.5h-9.2V11.4c0-0.7-0.1-1.3-0.3-1.8
			c-0.2-0.5-0.7-0.7-1.4-0.7h-0.2V8.2H66.8z"/>
	</g>
	<g>
		<path class="st0" d="M84.4,19.6V8.2h1.2v16.5h-1.1L74,12.3v12.3h-1.2V11.2c0-0.3,0-0.6-0.1-0.9c-0.1-0.3-0.2-0.5-0.4-0.7
			c-0.2-0.2-0.4-0.4-0.7-0.5C71.3,9,71,8.9,70.5,8.9h-0.1V8.2h1.7c0.9,0,1.7,0.1,2.3,0.4c0.6,0.2,1.1,0.6,1.5,1.1L84.4,19.6z"/>
	</g>
	<g>
		<path class="st0" d="M108.2,20c0.4,1.1,1,1.9,1.6,2.5c0.6,0.6,1.3,1,2.2,1.1v0.9c-0.2,0-0.5,0.1-0.8,0.1c-0.3,0-0.7,0.1-0.9,0.1
			c-0.6,0-1.2-0.1-1.9-0.2c-0.7-0.1-1.3-0.3-2-0.7c-0.6-0.3-1.2-0.8-1.8-1.4c-0.6-0.6-1.1-1.4-1.5-2.5l-0.8-2h-9.7l-3,6.6h-1.8
			L98.5,0.7h1.6L108.2,20z M93.4,16.4h8.2l-4-9.4L93.4,16.4z"/>
	</g>
	<g>
		<path class="st0" d="M117.5,17.1h-1v7.5h-3.3V11.4c0-0.7-0.1-1.3-0.3-1.8c-0.2-0.5-0.7-0.7-1.4-0.7h-0.2V8.2h6.9
			c0.4,0,0.8,0,1.3,0c0.5,0,1,0.1,1.5,0.2c0.5,0.1,1,0.3,1.5,0.5c0.5,0.2,0.9,0.5,1.3,0.8c0.4,0.3,0.7,0.8,0.9,1.2
			c0.2,0.5,0.3,1.1,0.3,1.7c0,0.6-0.1,1.2-0.4,1.7c-0.2,0.5-0.6,0.9-0.9,1.2c-0.4,0.3-0.8,0.6-1.3,0.8c-0.5,0.2-1,0.4-1.4,0.5
			l2.6,4.3c0.3,0.5,0.6,1,0.9,1.3c0.3,0.3,0.6,0.6,0.8,0.8c0.3,0.2,0.5,0.3,0.7,0.4c0.2,0.1,0.4,0.2,0.6,0.2v0.6
			c-0.1,0.1-0.4,0.1-0.7,0.2c-0.3,0-0.7,0.1-1,0.1c-0.4,0-0.8-0.1-1.3-0.2c-0.4-0.1-0.8-0.3-1.2-0.6c-0.4-0.3-0.8-0.7-1.2-1.1
			c-0.4-0.5-0.8-1-1.2-1.7L117.5,17.1z M118.1,9.2c-0.2,0-0.4,0-0.6,0c-0.2,0-0.4,0-0.5,0.1c-0.2,0-0.3,0.1-0.5,0.1v6.7h1.5
			c0.4,0,0.8-0.1,1.2-0.2c0.4-0.1,0.8-0.3,1.1-0.6c0.3-0.3,0.6-0.6,0.8-1.1c0.2-0.4,0.3-1,0.3-1.6c0-0.6-0.1-1.2-0.3-1.6
			c-0.2-0.4-0.5-0.8-0.8-1.1c-0.3-0.3-0.7-0.5-1-0.6C118.9,9.2,118.5,9.2,118.1,9.2z"/>
	</g>
	<g>
		<path class="st0" d="M140.4,8.2v1.1h-5.2v15.3H132V9.3h-1.8c-0.9,0-1.6,0.2-2.1,0.7c-0.5,0.4-0.8,1.2-0.8,2.3h-0.7v-2.1
			c0-0.2,0-0.5,0.1-0.7c0.1-0.2,0.2-0.5,0.3-0.6c0.2-0.2,0.4-0.3,0.6-0.4c0.3-0.1,0.6-0.2,1.1-0.2H140.4z"/>
	</g>
	<g>
		<path class="st0" d="M149.8,16l4.8-7.8h1.6l-5.6,9.2v7.2h-3.2V18l-4.4-6.6c-0.2-0.3-0.5-0.6-0.7-0.9c-0.3-0.3-0.5-0.6-0.8-0.9
			c-0.3-0.3-0.6-0.5-0.9-0.6c-0.3-0.2-0.6-0.3-0.9-0.3V8.2h2.7c0.5,0,0.9,0.1,1.3,0.2c0.4,0.2,0.8,0.4,1.1,0.6
			c0.3,0.3,0.6,0.6,0.9,0.9c0.3,0.3,0.5,0.6,0.7,1L149.8,16z"/>
	</g>
</g>
</svg>