<!-- Generator: Adobe Illustrator 21.0.2, SVG Export Plug-In  -->
<svg version="1.1"
	 xmlns="http://www.w3.org/2000/svg" xmlns:xlink="http://www.w3.org/1999/xlink" xmlns:a="http://ns.adobe.com/AdobeSVGViewerExtensions/3.0/"
	 x="0px" y="0px" width="37px" height="37px" viewBox="0 0 37 37" style="enable-background:new 0 0 37 37;" xml:space="preserve">
<style type="text/css">
	.st0{fill:#FFFFFF;fill-opacity:0.2;stroke:#FFFFFF;}
	.st1{clip-path:url(#SVGID_2_);}
	.st2{fill:#FFFFFF;}
	.st3{clip-path:url(#SVGID_4_);}
</style>
<defs>
</defs>
<g id="google_x2B__x5F_inlogo_1_">
	<circle id="Ellipse_1_" class="st0" cx="18.5" cy="18.5" r="18"/>
	<g>
		<defs>
			<rect id="SVGID_1_" x="9.8" y="10" width="18" height="18"/>
		</defs>
		<clipPath id="SVGID_2_">
			<use xlink:href="#SVGID_1_"  style="overflow:visible;"/>
		</clipPath>
		<g id="twitter_1_" class="st1">
			<g id="Group_1_">
				<g id="Group_2_1_">
					<path id="Vector_1_" class="st2" d="M25.7,14c0.8-0.5,1.3-1.2,1.6-2c-0.8,0.4-1.6,0.7-2.4,0.9c-0.7-0.8-1.6-1.1-2.7-1.1
						c-1,0-1.9,0.4-2.6,1.1c-0.7,0.7-1.1,1.6-1.1,2.6c0,0.3,0,0.6,0.1,0.8c-3.1-0.1-5.6-1.4-7.6-3.8c-0.3,0.6-0.5,1.2-0.5,1.8
						c0,1.3,0.5,2.3,1.6,3.1c-0.6-0.1-1.2-0.2-1.6-0.5c0,0.9,0.3,1.7,0.8,2.4c0.5,0.7,1.3,1.1,2.1,1.3c-0.3,0.1-0.6,0.1-1,0.1
						c-0.3,0-0.5,0-0.7-0.1c0.2,0.8,0.7,1.4,1.3,1.8c0.6,0.5,1.3,0.7,2.2,0.7c-1.3,1-2.9,1.6-4.6,1.6c-0.4,0-0.7,0-0.9,0
						c1.7,1.1,3.6,1.6,5.7,1.6c2.1,0,4-0.5,5.7-1.6c1.6-1.1,2.9-2.4,3.6-4c0.8-1.6,1.2-3.2,1.2-4.9v-0.5c0.8-0.6,1.4-1.2,1.8-1.9
						C27.1,13.7,26.4,13.9,25.7,14z"/>
				</g>
			</g>
		</g>
	</g>
</g>
</svg>