<svg version="1.1"
	 xmlns="http://www.w3.org/2000/svg" xmlns:xlink="http://www.w3.org/1999/xlink" xmlns:a="http://ns.adobe.com/AdobeSVGViewerExtensions/3.0/"
	 x="0px" y="0px" width="37px" height="37px" viewBox="0 0 37 37" style="enable-background:new 0 0 37 37;" xml:space="preserve">
<style type="text/css">
	.st0{fill:#FFFFFF;fill-opacity:0.2;stroke:#FFFFFF;}
	.st1{fill:#FFFFFF;}
</style>
<defs>
</defs>
<g id="youtube_1_">
	<circle id="Ellipse_1_" class="st0" cx="18.5" cy="18.5" r="18"/>
	<path id="XMLID_823_1_" class="st1" d="M27.4,12.7c-0.7-0.9-2-1.2-4.4-1.2h-8.9c-2.5,0-3.8,0.4-4.5,1.3c-0.7,0.9-0.7,2.3-0.7,4.1
		v3.6c0,3.6,0.8,5.5,5.2,5.5h8.9c2.1,0,3.3-0.3,4.1-1.1c0.8-0.8,1.1-2.1,1.1-4.4V17C28.1,15,28.1,13.6,27.4,12.7z M21.2,19.2l-4,2.3
		c-0.1,0.1-0.2,0.1-0.3,0.1c-0.1,0-0.2,0-0.3-0.1c-0.2-0.1-0.3-0.3-0.3-0.6v-4.5c0-0.2,0.1-0.4,0.3-0.6c0.2-0.1,0.4-0.1,0.6,0l4,2.2
		c0.2,0.1,0.3,0.3,0.3,0.6C21.6,18.9,21.4,19.1,21.2,19.2z"/>
</g>
</svg>